<svg xmlns="http://www.w3.org/2000/svg" viewBox="0 0 24 24" fill="none" stroke="currentColor" stroke-width="2" stroke-linecap="round" stroke-linejoin="round" aria-labelledby="nutrition-icon-title nutrition-icon-desc" role="img">
  <title id="nutrition-icon-title">Nutrition Tracking</title>
  <desc id="nutrition-icon-desc">Icon representing nutrition tracking and healthy eating features</desc>
  <path d="M12 2C6.48 2 2 6.48 2 12s4.48 10 10 10 10-4.48 10-10S17.52 2 12 2z" fill="hsl(14 100% 60%)"/>
  <path d="M12 2v20" stroke="hsl(164 100% 33%)" stroke-width="1.5"/>
  <path d="M12 2c-2.5 0-4.5 4.48-4.5 10s2 10 4.5 10" stroke="hsl(164 100% 33%)" stroke-width="1.5" fill="none"/>
  <path d="M12 2c2.5 0 4.5 4.48 4.5 10s-2 10-4.5 10" stroke="hsl(164 100% 33%)" stroke-width="1.5" fill="none"/>
  <ellipse cx="12" cy="12" rx="10" ry="4" stroke="hsl(164 100% 33%)" stroke-width="1.5" fill="none"/>
  <path d="M8 8c0-1.1.9-2 2-2h4c1.1 0 2 .9 2 2v1c0 1.1-.9 2-2 2h-4c-1.1 0-2-.9-2-2V8z" fill="hsl(0 0% 100%)" opacity="0.9"/>
  <circle cx="10" cy="8.5" r="0.5" fill="hsl(14 100% 60%)"/>
  <circle cx="14" cy="8.5" r="0.5" fill="hsl(14 100% 60%)"/>
  <path d="M10 9.5c.5.3 1.3.5 2 .5s1.5-.2 2-.5" stroke="hsl(14 100% 60%)" stroke-width="0.5" fill="none"/>
</svg>